<svg width="51" height="51" viewBox="0 0 51 51" fill="none" xmlns="http://www.w3.org/2000/svg">
<path d="M44.625 31.875L38.0672 25.3172C37.2703 24.5205 36.1894 24.0729 35.0625 24.0729C33.9356 24.0729 32.8547 24.5205 32.0578 25.3172L12.75 44.625M10.625 6.375H40.375C42.7222 6.375 44.625 8.27779 44.625 10.625V40.375C44.625 42.7222 42.7222 44.625 40.375 44.625H10.625C8.27779 44.625 6.375 42.7222 6.375 40.375V10.625C6.375 8.27779 8.27779 6.375 10.625 6.375ZM23.375 19.125C23.375 21.4722 21.4722 23.375 19.125 23.375C16.7778 23.375 14.875 21.4722 14.875 19.125C14.875 16.7778 16.7778 14.875 19.125 14.875C21.4722 14.875 23.375 16.7778 23.375 19.125Z" stroke="#007AFF" stroke-width="2" stroke-linecap="round" stroke-linejoin="round"/>
</svg>
